<?xml version="1.0" encoding="iso-8859-1"?>
<!-- Generator: Adobe Illustrator 19.0.0, SVG Export Plug-In . SVG Version: 6.00 Build 0)  -->
<svg version="1.1" id="Capa_1" xmlns="http://www.w3.org/2000/svg" xmlns:xlink="http://www.w3.org/1999/xlink" x="0px" y="0px"
	 viewBox="0 0 512.002 512.002" style="enable-background:new 0 0 512.002 512.002;" xml:space="preserve">
<path style="fill:#FFBF64;" d="M458.648,342.808L342.981,458.242L8.831,124.765c-1.774-1.771-1.774-4.642,0-6.413L118.072,9.33
	c1.774-1.771,4.651-1.771,6.426,0L458.648,342.808z"/>
<path style="fill:#FF7357;" d="M458.65,342.807l-35.34,35.269L85.94,41.395l11.25-11.227h0.01L118.07,9.33
	c1.78-1.766,4.65-1.766,6.43,0L458.65,342.807z"/>
<path style="fill:#FB624C;" d="M458.65,342.807l-20.88,20.838L103.62,30.167c-1.77-1.776-4.65-1.776-6.42,0l20.87-20.838
	c1.78-1.766,4.65-1.766,6.43,0L458.65,342.807z"/>
<path style="fill:#4A575E;" d="M493.19,377.278l-34.54-34.471l-20.91,20.868l-94.76,94.569l34.54,34.471
	c15.08,15.05,39.54,15.05,54.62,0l61.05-60.927C508.27,416.738,508.27,392.327,493.19,377.278z M431.74,448.354
	c-9.39,0-17-7.595-17-16.966s7.61-16.966,17-16.966s17,7.595,17,16.966S441.13,448.354,431.74,448.354z"/>
<path style="fill:#3A4449;" d="M493.19,431.788l-20.91,20.868c15.08-15.05,15.08-39.46,0-54.51l-34.54-34.47l20.91-20.868
	l34.54,34.471C508.27,392.327,508.27,416.738,493.19,431.788z"/>
<path d="M498.488,371.982L498.488,371.982C498.48,371.974,498.496,371.99,498.488,371.982L188.192,62.297
	c-2.932-2.927-7.681-2.922-10.606,0.011c-2.926,2.932-2.921,7.681,0.011,10.607L448.032,342.82l-24.726,24.677L96.56,41.391
	l24.726-24.677l33.538,33.472c2.931,2.926,7.68,2.921,10.606-0.011c2.926-2.932,2.921-7.681-0.011-10.607L129.796,4.015
	c-4.694-4.685-12.33-4.684-17.022,0L3.534,113.042C1.255,115.316,0,118.34,0,121.558s1.255,6.243,3.533,8.516l219.483,219.06
	c1.464,1.461,3.381,2.192,5.298,2.192c1.922,0,3.844-0.734,5.309-2.202c2.688-2.694,2.896-6.917,0.639-9.856l18.833-18.796
	c2.932-2.926,2.937-7.675,0.011-10.607c-2.926-2.933-7.675-2.937-10.606-0.011l-18.802,18.766l-22.316-22.272l18.781-18.744
	c2.932-2.926,2.937-7.675,0.011-10.607c-2.926-2.933-7.675-2.936-10.606-0.011l-18.802,18.765l-22.316-22.273l18.78-18.743
	c2.932-2.926,2.937-7.675,0.011-10.607c-2.926-2.933-7.675-2.937-10.606-0.011l-18.801,18.765l-22.316-22.273l18.779-18.743
	c2.932-2.926,2.937-7.675,0.011-10.607c-2.926-2.933-7.675-2.936-10.606-0.011l-18.801,18.764l-22.316-22.272l18.779-18.742
	c2.932-2.926,2.937-7.675,0.011-10.607c-2.926-2.933-7.675-2.937-10.606-0.011l-18.8,18.763L69.65,174.87l18.778-18.742
	c2.932-2.926,2.937-7.675,0.011-10.607c-2.926-2.933-7.675-2.937-10.606-0.011l-18.8,18.763L36.717,142l18.778-18.741
	c2.932-2.926,2.937-7.675,0.011-10.607c-2.926-2.933-7.675-2.936-10.606-0.011l-18.799,18.763l-9.865-9.846l69.707-69.57
	l326.746,326.106l-4.304,4.296c-2.932,2.926-2.937,7.675-0.011,10.607c2.926,2.932,7.675,2.936,10.606,0.011l39.67-39.592
	l29.242,29.185c5.874,5.862,9.108,13.656,9.108,21.947s-3.234,16.086-9.108,21.948l-61.05,60.931
	c-12.138,12.113-31.887,12.113-44.024,0l-29.221-29.164l40.441-40.362c2.932-2.926,2.937-7.675,0.011-10.607
	c-2.926-2.933-7.675-2.937-10.606-0.011l-40.462,40.382l-9.866-9.846l18.778-18.742c2.932-2.926,2.937-7.675,0.011-10.607
	c-2.926-2.933-7.675-2.937-10.606-0.011l-18.8,18.763l-22.317-22.271l18.78-18.743c2.932-2.926,2.937-7.675,0.011-10.607
	c-2.926-2.932-7.675-2.936-10.606-0.011l-18.802,18.764l-22.317-22.271l18.781-18.744c2.932-2.926,2.937-7.675,0.011-10.607
	c-2.926-2.932-7.675-2.937-10.606-0.011l-18.803,18.766l-1.307-1.305c-2.932-2.927-7.681-2.922-10.606,0.011
	c-2.926,2.932-2.921,7.681,0.011,10.607l127.486,127.233c0.01,0.01,0,0,0.01,0.01l0,0c8.99,8.972,20.799,13.458,32.608,13.458
	s23.618-4.486,32.608-13.458l61.05-60.93c8.713-8.696,13.512-20.262,13.512-32.566C512,392.244,507.201,380.679,498.488,371.982z"/>
<path d="M456.24,431.405c0-13.491-10.991-24.467-24.5-24.467s-24.5,10.976-24.5,24.467s10.991,24.467,24.5,24.467
	S456.24,444.896,456.24,431.405z M422.24,431.405c0-5.22,4.262-9.466,9.5-9.466s9.5,4.247,9.5,9.466s-4.262,9.466-9.5,9.466
	S422.24,436.624,422.24,431.405z"/>
<g>
</g>
<g>
</g>
<g>
</g>
<g>
</g>
<g>
</g>
<g>
</g>
<g>
</g>
<g>
</g>
<g>
</g>
<g>
</g>
<g>
</g>
<g>
</g>
<g>
</g>
<g>
</g>
<g>
</g>
</svg>
