<svg height="496pt" viewBox="0 -15 496 495" width="496pt" xmlns="http://www.w3.org/2000/svg"><path d="m24 184.5h71.34375c20.390625-64.910156 81.015625-112 152.65625-112s132.265625 47.089844 152.65625 112h71.34375c.953125 0 1.878906.121094 2.792969.28125v-.28125l-.183594-1.703125c-23.074219-105.632813-118.378906-182.296875-226.609375-182.296875s-203.535156 76.664062-226.601562 182.296875v1.96875c.847656-.144531 1.707031-.265625 2.601562-.265625zm0 0" fill="#f0bc5e"/><path d="m472 280.5h-71.34375c-20.390625 64.910156-81.015625 112-152.65625 112s-132.265625-47.089844-152.65625-112h-71.34375c-.953125 0-1.878906-.121094-2.792969-.28125v.28125l.183594 1.703125c23.074219 105.632813 118.378906 182.296875 226.609375 182.296875s203.535156-76.664062 226.601562-182.296875v-1.96875c-.847656.144531-1.707031.265625-2.601562.265625zm0 0" fill="#f0bc5e"/><path d="m248 128.5c-22.054688 0-40 17.945312-40 40v35.59375h16v-35.59375c0-13.230469 10.769531-24 24-24s24 10.769531 24 24v35.59375h16v-35.59375c0-22.054688-17.945312-40-40-40zm0 0"/><path d="m472 176.5h-65.71875c-23.714844-67.199219-86.503906-112-158.28125-112s-134.566406 44.800781-158.28125 112h-65.71875c-13.230469 0-24 10.769531-24 24v64c0 13.230469 10.769531 24 24 24h65.71875c23.714844 67.199219 86.503906 112 158.28125 112s134.566406-44.800781 158.28125-112h65.71875c13.230469 0 24-10.769531 24-24v-64c0-13.230469-10.769531-24-24-24zm-224-96c63.039062 0 118.472656 38.160156 141.289062 96h-69.289062v-8c0-39.703125-32.304688-72-72-72s-72 32.296875-72 72v8h-69.289062c22.816406-57.839844 78.25-96 141.289062-96zm232 184c0 4.414062-3.59375 8-8 8h-147.433594v16h64.722656c-22.816406 57.839844-78.25 96-141.289062 96s-118.472656-38.160156-141.289062-96h64.722656v-16h-147.433594c-4.40625 0-8-3.585938-8-8v-64c0-4.414062 3.59375-8 8-8h152v22.753906h16v-46.753906c0-30.871094 25.121094-56 56-56s56 25.128906 56 56v46.753906h16v-22.753906h152c4.40625 0 8 3.585938 8 8zm0 0"/><path d="m432 208.5h16v16h-16zm0 0"/><path d="m432 240.5h16v16h-16zm0 0"/><path d="m448 224.5h16v16h-16zm0 0"/><path d="m416 224.5h16v16h-16zm0 0"/><path d="m368 208.5h16v16h-16zm0 0"/><path d="m368 240.5h16v16h-16zm0 0"/><path d="m384 224.5h16v16h-16zm0 0"/><path d="m352 224.5h16v16h-16zm0 0"/><path d="m112 208.5h16v16h-16zm0 0"/><path d="m112 240.5h16v16h-16zm0 0"/><path d="m128 224.5h16v16h-16zm0 0"/><path d="m96 224.5h16v16h-16zm0 0"/><path d="m48 208.5h16v16h-16zm0 0"/><path d="m48 240.5h16v16h-16zm0 0"/><path d="m64 224.5h16v16h-16zm0 0"/><path d="m32 224.5h16v16h-16zm0 0"/><path d="m256 40.5c0 4.417969-3.582031 8-8 8s-8-3.582031-8-8 3.582031-8 8-8 8 3.582031 8 8zm0 0"/><path d="m117.894531 102.394531c3.128907-3.125 3.128907-8.191406 0-11.308593-3.125-3.128907-8.191406-3.128907-11.308593 0-3.128907 3.125-3.128907 8.191406 0 11.308593 3.117187 3.121094 8.183593 3.121094 11.308593 0zm0 0"/><path d="m106.574219 362.605469c-3.125 3.125-3.125 8.191406 0 11.308593 3.128906 3.128907 8.195312 3.128907 11.3125 0 3.128906-3.125 3.128906-8.191406 0-11.308593-3.117188-3.121094-8.183594-3.121094-11.3125 0zm0 0"/><path d="m256 424.5c0 4.417969-3.582031 8-8 8s-8-3.582031-8-8 3.582031-8 8-8 8 3.582031 8 8zm0 0"/><path d="m378.105469 362.605469c-3.128907 3.125-3.128907 8.191406 0 11.308593 3.125 3.128907 8.191406 3.128907 11.308593 0 3.128907-3.125 3.128907-8.191406 0-11.308593-3.117187-3.121094-8.183593-3.121094-11.308593 0zm0 0"/><path d="m389.425781 102.394531c3.125-3.125 3.125-8.191406 0-11.308593-3.128906-3.128907-8.195312-3.128907-11.3125 0-3.128906 3.125-3.128906 8.191406 0 11.308593 3.117188 3.121094 8.183594 3.121094 11.3125 0zm0 0"/><path d="m248 368.851562-2.296875-.6875c-51.261719-15.375-85.703125-61.664062-85.703125-115.183593v-32.480469l3.199219-2.398438c1.394531-1.050781 34.703125-25.601562 84.800781-25.601562s83.40625 24.550781 84.800781 25.601562l3.199219 2.398438v32.480469c0 53.519531-34.441406 99.816406-85.703125 115.183593zm0 0" fill="#f0bc5e"/><path d="m272 328.5h-48v-40.167969c-9.96875-7.511719-16-19.328125-16-31.832031 0-22.054688 17.945312-40 40-40s40 17.945312 40 40c0 12.503906-6.03125 24.320312-16 31.832031zm-32-16h16v-33.039062l3.976562-2.3125c7.527344-4.382813 12.023438-12.105469 12.023438-20.648438 0-13.230469-10.769531-24-24-24s-24 10.769531-24 24c0 8.542969 4.496094 16.265625 12.023438 20.648438l3.976562 2.3125zm0 0"/></svg>