<svg id="Layer_1" enable-background="new 0 0 512 512" height="512" viewBox="0 0 512 512" width="512" xmlns="http://www.w3.org/2000/svg"><g><path d="m453.5 256c0 133.23-5.81 243.82-5.87 244.92-.2 3.85-3.28 6.91-7.13 7.1-.29.01-10.15.48-27 1.09-32.59 1.18-91.34 2.89-157.5 2.89-100.36 0-183.67-3.94-184.5-3.98-3.85-.19-6.93-3.25-7.13-7.1-.06-1.1-5.87-111.69-5.87-244.92s5.81-243.82 5.87-244.92c.2-3.85 3.28-6.91 7.13-7.1.83-.04 84.14-3.98 184.5-3.98 29.33 0 39.96.34 54.68.8 5.8.19 12.37.4 20.99.61l13.34 13.33c.01.01.01.02.02.03l105.66 105.63c.25 7.7.5 14.85.74 21.75 1.11 32.08 2.07 59.79 2.07 113.85z" fill="#e1fff8"/><path d="m453.5 256c0 133.23-5.81 243.82-5.87 244.92-.2 3.85-3.28 6.91-7.13 7.1-.29.01-10.15.48-27 1.09 9.21-243.68-.11-387.52-.11-387.52-23.87-44.95-53.77-87.11-68.36-106.82l105.66 105.63c.25 7.7.5 14.85.74 21.75 1.11 32.08 2.07 59.79 2.07 113.85z" fill="#c5deed"/><path d="m450.69 120.4c-12.32.59-25.01.97-37.3 1.19-31.91.59-61.15.15-74.41-.13-4.24-.08-7.69-3.44-7.89-7.68-2.55-54.2.58-112.37.58-112.37 1.66.05 3.25.63 4.54 1.68 0 0 0 0 .01.01.95.76 63.52 51.79 112.81 112.83 1.03 1.27 1.61 2.84 1.66 4.47z" fill="#97b3bf"/><path d="m134.174 83h122.783c4.142 0 7.5-3.358 7.5-7.5s-3.358-7.5-7.5-7.5h-122.783c-4.142 0-7.5 3.358-7.5 7.5s3.358 7.5 7.5 7.5z" fill="#ff8f8f"/><path d="m134.174 138h92.783c4.142 0 7.5-3.358 7.5-7.5s-3.358-7.5-7.5-7.5h-92.783c-4.142 0-7.5 3.358-7.5 7.5s3.358 7.5 7.5 7.5z" fill="#ff8f8f"/><g fill="#7f9ab5"><path d="m133.109 224h245.782c4.142 0 7.5-3.358 7.5-7.5s-3.358-7.5-7.5-7.5h-245.782c-4.142 0-7.5 3.358-7.5 7.5s3.358 7.5 7.5 7.5z"/><path d="m133.109 279h225.782c4.142 0 7.5-3.358 7.5-7.5s-3.358-7.5-7.5-7.5h-225.782c-4.142 0-7.5 3.358-7.5 7.5s3.358 7.5 7.5 7.5z"/><path d="m378.891 319h-143.804c-4.142 0-7.5 3.358-7.5 7.5s3.358 7.5 7.5 7.5h143.804c4.142 0 7.5-3.358 7.5-7.5s-3.358-7.5-7.5-7.5z"/><path d="m133.109 334h57.108c4.142 0 7.5-3.358 7.5-7.5s-3.358-7.5-7.5-7.5h-57.108c-4.142 0-7.5 3.358-7.5 7.5s3.358 7.5 7.5 7.5z"/><path d="m133.109 389h225.782c4.142 0 7.5-3.358 7.5-7.5s-3.358-7.5-7.5-7.5h-225.782c-4.142 0-7.5 3.358-7.5 7.5s3.358 7.5 7.5 7.5z"/><path d="m133.109 444h245.782c4.142 0 7.5-3.358 7.5-7.5s-3.358-7.5-7.5-7.5h-245.782c-4.142 0-7.5 3.358-7.5 7.5s3.358 7.5 7.5 7.5z"/></g><path d="m450.69 120.4c-12.32.59-25.01.97-37.3 1.19-32.61-61.42-76.49-117.62-77.17-118.49.95.76 63.52 51.79 112.81 112.83 1.03 1.27 1.61 2.84 1.66 4.47z" fill="#708ea0"/></g></svg>