<svg id="Flat" height="512" viewBox="0 0 512 512" width="512" xmlns="http://www.w3.org/2000/svg"><rect fill="#f7cc38" height="288" rx="32" width="384" x="24" y="88"/><path d="m24 392a32 32 0 0 0 32 32h320a32 32 0 0 0 32-32v-224a32 32 0 0 0 -32-32h-176v-64a32 32 0 0 0 -32-32h-112a32 32 0 0 0 -32 32z" fill="#fbe36a"/><circle cx="384" cy="368" fill="#f79539" r="104"/><g fill="#e9eef2"><path d="m408 432h-48a8 8 0 0 1 0-16h48a8 8 0 0 1 0 16z"/><path d="m420.8 329.6-32-24a8 8 0 0 0 -9.6 0l-32 24a8 8 0 1 0 9.6 12.8l19.2-14.4v64a8 8 0 0 0 16 0v-64l19.2 14.4a8 8 0 0 0 9.6-12.8z"/></g></svg>