<?xml version="1.0" encoding="iso-8859-1"?>
<!-- Generator: Adobe Illustrator 19.0.0, SVG Export Plug-In . SVG Version: 6.00 Build 0)  -->
<svg version="1.1" id="Capa_1" xmlns="http://www.w3.org/2000/svg" xmlns:xlink="http://www.w3.org/1999/xlink" x="0px" y="0px"
	 viewBox="0 0 511.999 511.999" style="enable-background:new 0 0 511.999 511.999;" xml:space="preserve">
<g>
	<g>
		<path d="M126.987,344.363c-24.822,0-45.017,20.195-45.017,45.017c0,24.822,20.195,45.017,45.017,45.017
			c24.822,0,45.017-20.195,45.017-45.017C172.004,364.558,151.81,344.363,126.987,344.363z M126.987,404.386
			c-8.274,0-15.006-6.732-15.006-15.006c0-8.274,6.732-15.006,15.006-15.006c8.274,0,15.006,6.732,15.006,15.006
			C141.992,397.654,135.262,404.386,126.987,404.386z"/>
	</g>
</g>
<g>
	<g>
		<path d="M507.524,24.899c-0.361-7.508-6.158-13.53-13.552-14.216c-0.027-0.003-0.053-0.009-0.081-0.011L375.371,0.06
			c-7.63-0.683-14.552,4.493-16.053,12.005L350.675,55.3l-43.251,8.655c-5.94,1.188-10.582,5.832-11.77,11.771l-8.648,43.242
			l-43.231,8.639c-5.216,1.042-9.49,4.768-11.234,9.792l-17.704,50.979c-57.304-16.418-119.509-0.774-162.124,41.84
			c-64.357,64.357-64.357,169.076,0,233.433c31.176,31.177,72.628,48.346,116.717,48.346c91.266,0,165.063-74.011,165.063-165.063
			c0-17.553-2.73-34.683-7.972-50.916l176.589-174.855c2.847-2.818,4.448-6.658,4.448-10.663V25.618
			C507.558,25.376,507.535,25.139,507.524,24.899z M169.431,481.986c-36.075,0.003-69.989-14.045-95.497-39.553
			c-52.656-52.656-52.656-138.334,0-190.991c25.739-25.738,60.214-39.443,95.378-39.443c16.58,0,33.321,3.05,49.358,9.323
			c7.923,3.099,16.848-1.01,19.641-9.051l19.764-56.914l44.624-8.918c5.941-1.187,10.586-5.831,11.774-11.771l8.649-43.245
			l43.252-8.655c5.94-1.188,10.583-5.833,11.77-11.773l7.963-39.84l72.965,6.532L264.97,230.175
			c-5.898,5.85-5.92,15.391-0.044,21.265C349.377,335.891,289.816,481.986,169.431,481.986z M477.547,104.244L313.655,266.525
			c-4.951-8.848-10.736-17.277-17.334-25.176L477.547,61.633V104.244z"/>
	</g>
</g>
<g>
</g>
<g>
</g>
<g>
</g>
<g>
</g>
<g>
</g>
<g>
</g>
<g>
</g>
<g>
</g>
<g>
</g>
<g>
</g>
<g>
</g>
<g>
</g>
<g>
</g>
<g>
</g>
<g>
</g>
</svg>
