<?xml version="1.0"?>
<svg xmlns="http://www.w3.org/2000/svg" id="Filled" viewBox="0 0 512 512" width="512" height="512"><path d="M344,120V408a32,32,0,0,1-32,32H56a32,32,0,0,1-32-32V72A32,32,0,0,1,56,40H264Z" style="fill:#e9eef2"/><path d="M344,120H296a32,32,0,0,1-32-32V40Z" style="fill:#c3c6c7"/><rect x="216" y="312" width="272" height="176" style="fill:#f7cc38"/><polygon points="352 440 216 312 488 312 352 440" style="fill:#fbe36a"/><path d="M456,224l-56-48v24c-48,0-104,28.654-104,64,0,0,56-16,104-16v24Z" style="fill:#f79539"/><path d="M144,168a8,8,0,0,0,8,8H296a8,8,0,0,0,0-16H152A8,8,0,0,0,144,168Z"/><path d="M72,224H200a8,8,0,0,0,0-16H72a8,8,0,0,0,0,16Z"/><path d="M248,256H200a8,8,0,0,0,0,16h48a8,8,0,0,0,0-16Z"/><path d="M168,304H72a8,8,0,0,0,0,16h96a8,8,0,0,0,0-16Z"/><path d="M72,176h48a8,8,0,0,0,0-16H72a8,8,0,0,0,0,16Z"/><path d="M264,208H232a8,8,0,0,0,0,16h32a8,8,0,0,0,0-16Z"/><path d="M168,256H72a8,8,0,0,0,0,16h96a8,8,0,0,0,0-16Z"/><path d="M120,352H72a8,8,0,0,0,0,16h48a8,8,0,0,0,0-16Z"/><path d="M72,128h96a8,8,0,0,0,0-16H72a8,8,0,0,0,0,16Z"/><path d="M168,352H152a8,8,0,0,0,0,16h16a8,8,0,0,0,0-16Z"/><path d="M488,304H352V260.214a341.888,341.888,0,0,1,40-4.068V272a8,8,0,0,0,13.207,6.074l56-48a8,8,0,0,0,0-12.148l-56-48A8,8,0,0,0,392,176v16.247a156.588,156.588,0,0,0-40,7.951V120a8,8,0,0,0-2.343-5.657l-80-80A8,8,0,0,0,264,32H56A40.045,40.045,0,0,0,16,72V408a40.045,40.045,0,0,0,40,40H208v40a8,8,0,0,0,8,8H488a8,8,0,0,0,8-8V312A8,8,0,0,0,488,304Zm-20.173,16L352,429.014,236.173,320ZM400,208a8,8,0,0,0,8-8v-6.606L443.708,224,408,254.606V248a8,8,0,0,0-8-8c-35.325,0-74.219,8.277-93.694,13.045C316.915,227.842,362.133,208,400,208ZM272,59.313,324.687,112H296a24.027,24.027,0,0,1-24-24ZM208,312V432H56a24.027,24.027,0,0,1-24-24V72A24.027,24.027,0,0,1,56,48H256V88a40.045,40.045,0,0,0,40,40h40v78.611c-3.452,1.624-6.805,3.356-10.009,5.211C301.492,226.009,288,244.54,288,264a8,8,0,0,0,10.2,7.692c.293-.083,16.095-4.549,37.8-8.695v41H216A8,8,0,0,0,208,312ZM480,480H224V330.516l122.517,115.31a8,8,0,0,0,10.966,0L480,330.516Z"/></svg>
