<svg id="Capa_1" enable-background="new 0 0 512 512" height="512" viewBox="0 0 512 512" width="512" xmlns="http://www.w3.org/2000/svg"><g><path d="m402.764 329.944c63.903-24.663 109.236-86.676 109.236-159.277 0-.095 0-.19 0-.285-.01-5.842-8.003-7.458-10.391-2.127-18.738 41.833-60.83 70.924-109.693 70.677-65.207-.33-118.518-53.641-118.848-118.848-.247-48.863 28.844-90.955 70.677-109.693 5.331-2.388 3.715-10.381-2.127-10.391-.095 0-.19 0-.285 0-94.256 0-170.666 76.409-170.667 170.665 0 24.33 5.106 47.48 14.304 68.436v119.299h217.315z" fill="#ffe07d"/><path d="m402.764 329.944c63.903-24.663 109.236-86.676 109.236-159.277 0-.095 0-.19 0-.285-.01-5.842-8.003-7.458-10.391-2.127-18.738 41.833-60.83 70.924-109.693 70.677-65.207-.33-118.518-53.641-118.848-118.848-.247-48.863 28.844-90.955 70.677-109.693 5.331-2.388 3.715-10.381-2.127-10.391-.095 0-.19 0-.285 0-94.256 0-170.666 76.409-170.667 170.665 0 24.33 5.106 47.48 14.304 68.436v119.299h217.315z" fill="#ffe07d"/><g fill="#ffd064"><path d="m320.051 10.391c-41.833 18.738-70.924 60.83-70.677 109.693.33 65.206 53.641 118.518 118.848 118.848 4.208.021 8.362-.19 12.459-.594-59.985-5.979-107.302-56.837-107.612-118.254-.247-48.863 28.844-90.955 70.677-109.693 5.33-2.388 3.714-10.381-2.128-10.391-.095 0-.19 0-.285 0-6.775 0-13.453.407-20.022 1.175 2.821 2.31 2.811 7.393-1.26 9.216z"/><path d="m512 170.382c-.01-5.842-8.003-7.458-10.391-2.127-3.928 8.77-8.895 16.97-14.723 24.466-8.119 62.917-50.492 115.098-107.817 137.222l-.478 28.456h23.694l.478-28.456c63.904-24.662 109.237-86.675 109.237-159.276 0-.095 0-.19 0-.285z"/></g><g><path d="m443.733 375.467h-.023c-1.257 0-2.34-.846-2.692-2.053-8.268-28.396-34.486-49.147-65.552-49.147-11.616 0-22.547 2.91-32.12 8.03-3.751 2.007-8.409.958-10.794-2.565-9.203-13.595-24.765-22.532-42.419-22.532-4.129 0-8.142.491-11.986 1.415-4.165 1.002-8.466-1.236-9.811-5.304-12.364-37.394-47.597-64.378-89.136-64.378-51.841 0-93.867 42.025-93.867 93.867 0 1.177.03 2.347.079 3.512.049 1.153-.33 2.284-1.04 3.193l-.073.094c-.889 1.139-2.235 1.812-3.679 1.89-45.42 2.475-81.393 40.443-80.607 86.662.794 46.722 39.663 83.849 86.392 83.849h356.311c37.519 0 68.792-29.845 69.279-67.36.494-38.118-30.257-69.173-68.262-69.173z" fill="#ecf4ff"/><path d="m443.733 375.467h-.023c-1.257 0-2.34-.846-2.692-2.053-8.268-28.396-34.486-49.147-65.552-49.147-11.616 0-22.547 2.91-32.12 8.03-3.751 2.007-8.409.958-10.794-2.565-9.203-13.595-24.765-22.532-42.419-22.532-4.129 0-8.142.491-11.986 1.415-4.165 1.002-8.466-1.236-9.811-5.304-12.364-37.394-47.597-64.378-89.136-64.378-51.841 0-93.867 42.025-93.867 93.867 0 1.177.03 2.347.079 3.512.049 1.153-.33 2.284-1.04 3.193l-.073.094c-.889 1.139-2.235 1.812-3.679 1.89-45.42 2.475-81.393 40.443-80.607 86.662.794 46.722 39.663 83.849 86.392 83.849h356.311c37.519 0 68.792-29.845 69.279-67.36.494-38.118-30.257-69.173-68.262-69.173z" fill="#ecf4ff"/><path d="m443.733 375.467h-.023c-1.257 0-2.34-.846-2.692-2.053-8.268-28.396-34.486-49.147-65.552-49.147-4.039 0-7.993.36-11.839 1.034 25.73 4.507 46.504 23.414 53.696 48.113.352 1.207 1.434 2.053 2.692 2.053h.023c38.004 0 68.755 31.055 68.261 69.173-.487 37.516-31.76 67.36-69.279 67.36h23.694c37.519 0 68.792-29.845 69.279-67.36.496-38.118-30.255-69.173-68.26-69.173z" fill="#daeaff"/><path d="m162.94 426.667c0 4.268 3.459 7.726 7.726 7.726s7.726-3.459 7.726-7.726c0-52.837-40.991-96.279-92.842-100.197-.139 2.093-.217 4.202-.217 6.33 0 1.177.03 2.347.079 3.512.049 1.153-.33 2.284-1.04 3.193l-.073.094c-.889 1.139-2.235 1.812-3.679 1.89-.685.037-1.36.108-2.041.162 46.578.364 84.361 38.354 84.361 85.016z" fill="#ddeafb"/><g><path d="m277.296 308.773c-3.886.529-7.706-1.67-8.96-5.461-.776-2.346-1.642-4.651-2.594-6.911-28.536 10.08-49.044 37.31-49.044 69.253 0 4.268 3.459 7.726 7.726 7.726s7.726-3.459 7.726-7.726c0-27.559 19.333-50.913 45.144-56.839v-.042z" fill="#ddeafb"/></g><path d="m383.193 447.597c0-4.268-3.459-7.726-7.726-7.726s-7.726 3.459-7.726 7.726c0 26.412 12.897 49.858 32.715 64.403h42.26c.827 0 1.647-.032 2.468-.061-34.397-1.275-61.991-29.64-61.991-64.342z" fill="#ddeafb"/></g><path d="m187.733 26.407h-9.34v-9.34c0-4.267-3.459-7.726-7.726-7.726s-7.726 3.459-7.726 7.726v9.34h-9.341c-4.267 0-7.726 3.459-7.726 7.726s3.459 7.726 7.726 7.726h9.341v9.341c0 4.267 3.459 7.726 7.726 7.726s7.726-3.459 7.726-7.726v-9.341h9.34c4.267 0 7.726-3.459 7.726-7.726s-3.459-7.726-7.726-7.726z" fill="#fff0af"/><g fill="#ffe07d"><path d="m85.333 103.208c-4.268 0-7.726 3.459-7.726 7.726v17.067c0 4.267 3.459 7.726 7.726 7.726s7.726-3.459 7.726-7.726v-17.067c0-4.267-3.458-7.726-7.726-7.726z"/><path d="m85.333 171.474c-4.268 0-7.726 3.459-7.726 7.726v17.067c0 4.267 3.459 7.726 7.726 7.726s7.726-3.459 7.726-7.726v-17.067c0-4.266-3.458-7.726-7.726-7.726z"/><path d="m128 145.875h-17.066c-4.268 0-7.726 3.459-7.726 7.726s3.459 7.726 7.726 7.726h17.066c4.268 0 7.726-3.459 7.726-7.726s-3.458-7.726-7.726-7.726z"/><path d="m59.733 145.875h-17.066c-4.268 0-7.726 3.459-7.726 7.726s3.459 7.726 7.726 7.726h17.066c4.268 0 7.726-3.459 7.726-7.726.001-4.267-3.458-7.726-7.726-7.726z"/><path d="m426.667 52.007c-4.268 0-7.726 3.459-7.726 7.726v17.067c0 4.267 3.459 7.726 7.726 7.726s7.726-3.459 7.726-7.726v-17.067c0-4.267-3.458-7.726-7.726-7.726z"/><path d="m426.667 120.274c-4.268 0-7.726 3.459-7.726 7.726v17.067c0 4.267 3.459 7.726 7.726 7.726s7.726-3.459 7.726-7.726v-17.067c0-4.267-3.458-7.726-7.726-7.726z"/><path d="m469.333 94.674h-17.066c-4.268 0-7.726 3.459-7.726 7.726s3.459 7.726 7.726 7.726h17.066c4.268 0 7.726-3.459 7.726-7.726s-3.458-7.726-7.726-7.726z"/><path d="m401.066 94.674h-17.066c-4.268 0-7.726 3.459-7.726 7.726s3.459 7.726 7.726 7.726h17.066c4.268 0 7.726-3.459 7.726-7.726.001-4.267-3.458-7.726-7.726-7.726z"/></g></g></svg>