<svg id="_x33_0" enable-background="new 0 0 64 64" height="512" viewBox="0 0 64 64" width="512" xmlns="http://www.w3.org/2000/svg"><g><g><g><path d="m20 16v4h-14-3c-.55 0-1-.45-1-1v-2c0-.55.45-1 1-1h11z" fill="#aab2bd"/></g><g><path d="m62 17v2c0 .55-.45 1-1 1h-3-14v-4h14 3c.55 0 1 .45 1 1z" fill="#aab2bd"/></g><g><path d="m44 20h-24-14v18h52v-18z" fill="#ccd1d9"/></g><g><path d="m20 40v2h-16-1c-.55 0-1-.45-1-1v-2c0-.55.45-1 1-1h3 8 6z" fill="#aab2bd"/></g><g><path d="m62 39v2c0 .55-.45 1-1 1h-1-16v-2-2h6 8 3c.55 0 1 .45 1 1z" fill="#aab2bd"/></g><g><path d="m20 44v18h-16v-20h16zm-4 12v-4-4h-4-4v4 4h4z" fill="#e6e9ed"/></g><g><path d="m60 42v20h-16v-18-2z" fill="#e6e9ed"/></g><g><path d="m48 48h8v8h-8z" fill="#69d6f4"/></g><g><path d="m8 48h8v8h-8z" fill="#69d6f4"/></g><g><path d="m14 26h36v12h-36z" fill="#69d6f4"/></g><g><path d="m44 40v4h-24v-4-4h6 6 6 6z" fill="#fcd770"/></g><g><path d="m44 53v9h-24v-9-9h6 6 6 6z" fill="#ffeaa7"/></g><g><path d="m40 56v6h-16v-12h16z" fill="#69d6f4"/></g><g><path d="m44 16v4h-24v-4-2c0-6.63 5.37-12 12-12 3.32 0 6.32 1.34 8.49 3.51s3.51 5.17 3.51 8.49z" fill="#e6e9ed"/></g><g><path d="m4 2h10v6h-10z" fill="#ef7385"/></g><g><path d="m48 2h10v6h-10z" fill="#ef7385"/></g><g><path d="m37 8v.61c0 3.26-1.98 6.18-5 7.39-1.51-.6-2.76-1.64-3.63-2.93s-1.37-2.83-1.37-4.46v-.61h.17c1.81 0 3.55-.72 4.83-2 1.28 1.28 3.02 2 4.83 2z" fill="#fcd770"/></g></g><g><path d="m31.629 16.928.371.149.371-.149c3.42-1.367 5.629-4.631 5.629-8.313v-1.615h-1.172c-1.557 0-3.021-.606-4.121-1.707l-.707-.708-.707.708c-1.101 1.101-2.564 1.707-4.121 1.707h-1.172v1.615c0 3.682 2.209 6.946 5.629 8.313zm.371-9.593c1.154.908 2.528 1.466 3.992 1.621-.124 2.584-1.651 4.86-3.992 5.955-2.341-1.095-3.868-3.37-3.992-5.955 1.464-.154 2.838-.713 3.992-1.621z"/><path d="m61 21c1.103 0 2-.897 2-2v-2c0-1.103-.897-2-2-2h-2v-14h-12v8h10v6h-12v-1c0-7.168-5.832-13-13-13s-13 5.832-13 13v1h-4v-14h-12v8h10v6h-10c-1.103 0-2 .897-2 2v2c0 1.103.897 2 2 2h2v16h-2c-1.103 0-2 .897-2 2v2c0 1.103.897 2 2 2v20h58v-20c1.103 0 2-.897 2-2v-2c0-1.103-.897-2-2-2h-2v-16zm-12-14v-4h8v4zm-44 0v-4h8v4zm56 10v2h-16v-2zm-29-14c6.065 0 11 4.935 11 11v5h-22v-5c0-6.065 4.935-11 11-11zm-29 14h16v2h-16zm0 22h16v2h-16zm42-2v-4h4v4zm-14 20v4h-6v-10h6v4h-2v2zm2 0h2v-2h-2v-4h6v10h-6zm-10-8v12h-2v-16h22v16h-2v-12zm20-14h-4v-2h4zm-22 4v-2h22v2zm22 2v2h-22v-2zm-6-6h-4v-2h4zm-6 0h-4v-2h4zm-6 0h-4v-2h4zm24-4h-4v-4h4zm-6 0h-4v-4h4zm-6 0h-4v-4h4zm-6 0h-4v-4h4zm-6 0h-4v-4h4zm-6 0h-4v-4h4zm-4 2h4v4h-4zm-10 10h14v18h-14zm54 18h-14v-18h14zm2-20h-16v-2h16zm-4-4h-6v-12h-38v12h-6v-16h50z"/><path d="m57 57v-10h-10v10zm-8-4h2v2h-2zm4 2v-2h2v2zm2-4h-2v-2h2zm-4-2v2h-2v-2z"/><path d="m7 47v10h10v-10zm8 4h-2v-2h2zm-4-2v2h-2v-2zm-2 4h2v2h-2zm4 2v-2h2v2z"/></g></g></svg>