<svg height="512" viewBox="0 0 60 56" width="512" xmlns="http://www.w3.org/2000/svg"><g id="Page-1" fill="none" fill-rule="evenodd"><g id="058---Inbox" fill="rgb(0,0,0)" fill-rule="nonzero"><path id="Shape" d="m54 10.08v-3.08c-.0046835-3.8640516-3.1359484-6.99531646-7-7h-40c-3.8640516.00468354-6.99531646 3.1359484-7 7v32c.00647601 3.475684 2.56030274 6.4210975 6 6.92v3.08c.00468354 3.8640516 3.1359484 6.9953165 7 7h40c3.8640516-.0046835 6.9953165-3.1359484 7-7v-32c-.006476-3.475684-2.5603027-6.4210975-6-6.92zm4 38.92c-.0013072.9616607-.2820963 1.9022106-.8082 2.7072l-18.7379-18.7472 18.7131-18.7129c.5431229.8153825.832946 1.7731903.833 2.7529zm-22.8789-15.5352c-1.1720474 1.170011-3.0701526 1.170011-4.2422 0l-20.6318-20.6318c.8153825-.5431229 1.7731903-.832946 2.7529-.833h40c.9797097.000054 1.9375175.2898771 2.7529.833zm-26.3129 18.2424c-.52610366-.8049894-.80689281-1.7455393-.8082-2.7072v-32c.00005404-.9797097.28987712-1.9375175.833-2.7529l18.7131 18.7129zm42.3632-47.4645c.5435159.81659633.8319381 1.77636782.8286 2.7573l.0000287 3h-6.5859287zm-4.1714-2.2427c.9807927-.00317309 1.9403583.28550417 2.7566.8293l-7.1707 7.1707h-29.5859c-.4826727.0001985-.9640316.0502981-1.4364.1495l-7.3209-7.3209c.81659633-.54351589 1.77636782-.83193813 2.7573-.8286zm-45 5c-.00317309-.98079272.28550417-1.9403583.8293-2.7566l6.6914 6.6914c-2.17480325 1.2456049-3.51764313 3.5589495-3.5207 6.0652v21.5059l-3.1952 3.1951c-.52379613-.8035726-.80335001-1.7417872-.8048-2.701zm2.197 36.137 1.803-1.803v2.5649c-.6455632-.1319376-1.25844722-.3909261-1.803-.7619zm8.803 10.863c-.9976626.001055-1.972559-.2981144-2.7979-.8586l18.7579-18.7672.5047.5047c1.9537305 1.9489344 5.1162695 1.9489344 7.07 0l.5047-.5047 18.758 18.7672c-.8252.5603896-1.7999078.8595546-2.7974.8586z"/></g></g></svg>