<svg id="Layer_1" enable-background="new 0 0 482.014 482.014" height="512" viewBox="0 0 482.014 482.014" width="512" xmlns="http://www.w3.org/2000/svg"><g><path d="m473 135.766v272c0 22.079-17.919 40-40 40h-384c-22.079 0-40-17.919-40-40v-272c0-22.09 17.91-40 40-40h384c22.09 0 40 17.91 40 40z" fill="#ffec8f"/></g><path d="m287.45 262.216 173.83 173.83c-7.24 7.24-17.24 11.72-28.28 11.72h-384c-11.04 0-21.04-4.48-28.28-11.72l173.83-173.83 25.48 12.37c13.24 6.43 28.7 6.43 41.94 0z" fill="#ffe773"/><g><g><path d="m473 135.766v24.674c0 11.757-10.715 20.491-22.259 18.321-108.751-20.444-218.452-4.32-315.477 46.277-5.23 2.727-11.439 2.827-16.745.25l-109.519-53.192v-36.33c0-22.091 17.909-40 40-40h384c22.091 0 40 17.908 40 40z" fill="#fff0a6"/></g></g><path d="m473 172.096v33.5l-163 79.17-22.55-22.55z" fill="#ffe773"/><path d="m310 284.766c-27.53 13.368-16.217 7.876-48.03 23.32-13.24 6.43-28.7 6.43-41.94 0-31.807-15.442-20.486-9.945-48.03-23.32l22.55-22.55 25.48 12.37c13.24 6.43 28.7 6.43 41.94 0l25.48-12.37z" fill="#fada86"/><path d="m194.55 262.216-22.55 22.55-163-79.17v-33.5z" fill="#ffe773"/><g><path d="m467.86 49.604-40.11 119.24c-2.24 6.67-11.38 7.4-14.66 1.18-27.498-52.214-25.319-49.184-28.34-50.79-7.965-4.203.177.088-47.43-24.99-6.22-3.28-5.49-12.42 1.18-14.66l119.23-40.11c6.27-2.11 12.24 3.86 10.13 10.13z" fill="#d6f4fc"/></g><path d="m467.86 49.604c-1.077 3.194-3.595 5.704-6.79 6.779-134.922 45.391-108.875 36.588-114.399 38.583-2.912 1.052-6.176.962-8.911-.49-7.144-3.796-5.604-12.761.74-14.892l119.23-40.11c6.27-2.11 12.24 3.86 10.13 10.13z" fill="#e8f8fc"/><path d="m481.8 175.834v227.874c0 29.214-23.767 52.981-52.98 52.981h-375.839c-29.214.001-52.981-23.767-52.981-52.981v-263.885c0-29.214 23.767-52.981 52.981-52.981h214.019c4.971 0 9 4.029 9 9s-4.029 9-9 9h-214.019c-19.289-.001-34.981 15.692-34.981 34.981v26.685l205.729 99.909c10.896 5.292 23.381 5.261 34.25-.087l117.049-57.571c4.462-2.193 9.854-.356 12.049 4.104 2.193 4.461.356 9.854-4.104 12.049l-117.049 57.571c-15.874 7.808-34.119 7.866-50.058.126l-197.866-96.091v217.19c0 19.289 15.692 34.981 34.981 34.981h375.838c19.288 0 34.98-15.692 34.98-34.981v-227.874c0-4.971 4.029-9 9-9s9.001 4.03 9.001 9zm-341.223 127.551-87.712 87.712c-5.689 5.688-1.581 15.364 6.364 15.364 2.303 0 4.606-.879 6.364-2.636l87.712-87.712c3.515-3.515 3.515-9.214 0-12.729-3.515-3.513-9.214-3.513-12.728.001zm200.647 0c-3.516-3.514-9.213-3.514-12.729 0-3.515 3.515-3.515 9.214 0 12.729l87.712 87.712c3.517 3.515 9.213 3.514 12.729 0 3.515-3.515 3.515-9.214 0-12.729zm-23.297-226.38 152.204-51.197c7.035-2.367 13.768 4.358 11.399 11.399l-51.197 152.205c-2.517 7.486-12.809 8.314-16.492 1.327l-33.561-63.682-63.68-33.56c-6.974-3.674-6.17-13.971 1.327-16.492zm25.65 10.364 41.692 21.972 30.164-30.164c3.516-3.514 9.213-3.514 12.729 0 3.515 3.515 3.515 9.214 0 12.729l-30.164 30.164 21.972 41.693 38.722-115.115z"/></svg>