<svg height="512pt" viewBox="0 -25 512.00249 512" width="512pt" xmlns="http://www.w3.org/2000/svg"><path d="m342.964844 257.300781-65.90625 59.65625v-59.65625zm0 0" fill="#d1b288"/><path d="m504.492188 7.5-227.433594 249.800781v59.65625l-71.777344-59.65625zm0 0" fill="#eaca9b"/><path d="m504.492188 7.5-299.210938 249.800781h-117.070312c-2.941407 0-3.992188-3.882812-1.457032-5.367187zm0 0" fill="#ffe8c2"/><path d="m142.425781 241.5625c-2.941406 0-3.992187-3.882812-1.457031-5.367188l299.515625-175.253906 64.007813-53.4375-417.738282 244.429688c-2.535156 1.484375-1.480468 5.367187 1.457032 5.367187h117.070312l18.851562-15.738281zm0 0" fill="#f4dab5"/><path d="m504.492188 7.5-55.238282 246.695312c-.40625 1.816407-2.015625 3.105469-3.875 3.105469h-168.320312zm0 0" fill="#ffe8c2"/><g fill="#64d3ff"><path d="m462.332031 426.429688c6.820313.910156 12.085938 6.730468 12.085938 13.800781 0 7.691406-6.238281 13.929687-13.929688 13.929687h-97.542969c-7.691406 0-13.933593-6.238281-13.933593-13.929687 0-7.703125 6.242187-13.941407 13.933593-13.941407h8.191407c-1.671875-3.355468-2.613281-7.140624-2.613281-11.148437 0-13.847656 11.226562-25.074219 25.074218-25.074219 13.851563 0 25.089844 11.226563 25.089844 25.074219 0 4.007813-.953125 7.792969-2.613281 11.148437h9.113281c0-10.253906 8.3125-18.578124 18.574219-18.578124 10.265625 0 18.578125 8.324218 18.578125 18.578124 0 .050782-.007813.089844-.007813.140626zm0 0"/><path d="m189.199219 86.398438c9.152343 1.222656 16.210937 9.03125 16.210937 18.515624 0 10.324219-8.371094 18.6875-18.695312 18.6875h-130.851563c-10.328125 0-18.699219-8.363281-18.699219-18.6875 0-10.324218 8.371094-18.695312 18.699219-18.695312h10.972657c-2.230469-4.507812-3.503907-9.585938-3.503907-14.953125 0-18.585937 15.074219-33.648437 33.648438-33.648437 18.589843 0 33.652343 15.0625 33.652343 33.648437 0 5.367187-1.261718 10.445313-3.507812 14.953125h12.230469c0-13.773438 11.164062-24.929688 24.925781-24.929688 13.769531 0 24.925781 11.15625 24.925781 24.929688 0 .058594-.007812.117188-.007812.179688zm0 0"/><path d="m120.828125 356.324219c6.820313.914062 12.085937 6.730469 12.085937 13.800781 0 7.691406-6.238281 13.929688-13.929687 13.929688h-97.542969c-7.691406 0-13.929687-6.238282-13.929687-13.929688 0-7.699219 6.238281-13.941406 13.929687-13.941406h8.191406c-1.671874-3.351563-2.613281-7.140625-2.613281-11.144532 0-13.851562 11.226563-25.078124 25.078125-25.078124 13.847656 0 25.085938 11.226562 25.085938 25.078124 0 4.003907-.953125 7.792969-2.613282 11.144532h9.113282c0-10.253906 8.3125-18.574219 18.578125-18.574219 10.261719 0 18.574219 8.320313 18.574219 18.574219 0 .050781-.007813.09375-.007813.140625zm0 0"/></g><path d="m374.050781 446.855469c1.929688-6.082031 7.792969-10.054688 14.171875-10.054688 3.3125 0 5.851563-3.011719 5.207032-6.261719-.3125-1.578124-.476563-3.210937-.476563-4.882812 0-12.554688 9.226563-22.953125 21.265625-24.789062-4.878906-7.027344-13.253906-11.445313-22.605469-10.726563-12.328125.953125-22.261719 11.039063-23.039062 23.378906-.292969 4.605469.664062 8.964844 2.5625 12.769531h-7.785157c-7.503906 0-13.960937 5.761719-14.320312 13.257813-.382812 8 5.996094 14.613281 13.914062 14.613281h10.941407c-.570313-2.253906-.660157-4.703125.164062-7.304687zm0 0" fill="#34bfea"/><path d="m61.734375 113.132812c1.160156-9.464843 9.523437-16.402343 19.058594-16.402343 4.75 0 8.351562-4.292969 7.507812-8.96875-.351562-1.941407-.539062-3.941407-.539062-5.984375 0-18.585938 15.070312-33.644532 33.640625-33.648438-6.132813-6.472656-14.800782-10.511718-24.421875-10.511718-18.578125 0-33.648438 15.0625-33.648438 33.648437 0 5.367187 1.269531 10.445313 3.503907 14.953125h-10.527344c-10.140625 0-18.773438 7.886719-19.132813 18.019531-.375 10.632813 8.136719 19.363281 18.6875 19.363281h7.636719c-1.519531-3.105468-2.226562-6.675781-1.765625-10.46875zm0 0" fill="#34bfea"/><path d="m32.550781 376.753906c1.925781-6.082031 7.789063-10.054687 14.167969-10.054687 3.3125 0 5.851562-3.011719 5.207031-6.261719-.3125-1.582031-.476562-3.214844-.476562-4.886719 0-12.554687 9.226562-22.953125 21.265625-24.789062-4.878906-7.023438-13.253906-11.441407-22.605469-10.722657-12.328125.949219-22.261719 11.039063-23.039063 23.378907-.289062 4.605469.664063 8.960937 2.5625 12.765625h-7.785156c-7.503906 0-13.960937 5.761718-14.320312 13.257812-.382813 8.003906 5.996094 14.613282 13.914062 14.613282h10.941406c-.570312-2.253907-.660156-4.699219.167969-7.300782zm0 0" fill="#34bfea"/><path d="m507.953125.835938c-2.105469-1.09375-4.53125-1.082032-6.59375-.136719 0-.007813-.625.296875-.664063.320312l-426.902343 249.800781c-2.925781 1.714844-4.339844 5.175782-3.453125 8.449219.886718 3.273438 3.859375 5.546875 7.25 5.546875h124.980468l69.6875 57.917969c.054688.046875.121094.078125.179688.125.25.195313.507812.378906.785156.542969.136719.082031.277344.152344.417969.222656.128906.066406.242187.140625.371094.199219.128906.054687.257812.097656.386719.148437.082031.027344.160156.0625.242187.089844.34375.117188.695313.207031 1.050781.273438.078125.015624.160156.027343.238282.039062.375.054688.746093.09375 1.121093.09375h.003907c.253906 0 .503906-.015625.753906-.039062.078125-.007813.15625-.023438.234375-.035157.171875-.019531.339843-.046875.507812-.082031.09375-.019531.1875-.042969.28125-.0625.148438-.039062.300781-.078125.449219-.125.097656-.03125.195312-.0625.292969-.097656.144531-.050782.28125-.105469.421875-.164063.097656-.042969.191406-.082031.289062-.125.144532-.070312.289063-.152343.433594-.230469.078125-.042968.160156-.082031.238281-.128906.210938-.128906.417969-.269531.617188-.417968.066406-.050782.128906-.109376.195312-.164063.109375-.089844.222657-.175781.332031-.269531l63.757813-57.714844h102.707031c3.515625 0 6.5625-2.4375 7.328125-5.867188l55.925781-249.804687c.742188-3.324219-.84375-6.730469-3.867187-8.304687zm-305.390625 248.957031h-97.265625l325.164063-190.273438zm82.003906 50.234375v-35.210938h38.90625zm157.980469-50.234375h-148.496094l38.09375-41.839844c2.792969-3.066406 2.570313-7.816406-.496093-10.609375-3.066407-2.792969-7.816407-2.574219-10.609376.496094l-49.535156 54.40625c-.027344.027344-.046875.0625-.074218.089844-.433594.492187-.800782 1.039062-1.09375 1.628906-.03125.0625-.0625.121094-.089844.183594-.269532.582031-.464844 1.203124-.582032 1.851562-.011718.074219-.023437.152344-.035156.230469-.035156.257812-.058594.519531-.070312.785156-.003906.066406-.007813.136719-.007813.203125 0 .03125-.003906.058594-.003906.085938v43.644531l-52.527344-43.660157 207.988281-173.644531-83.742187 91.980469c-2.792969 3.066406-2.570313 7.816406.496094 10.609375 3.066406 2.792969 7.820312 2.570313 10.609375-.496094l138.597656-152.230469zm0 0"/><path d="m55.855469 131.117188h31.382812c4.144531 0 7.507813-3.363282 7.507813-7.511719 0-4.148438-3.363282-7.511719-7.507813-7.511719h-31.382812c-6.164063 0-11.179688-5.015625-11.179688-11.183594 0-6.164062 5.015625-11.183594 11.179688-11.183594h10.984375c2.601562 0 5.015625-1.34375 6.386718-3.554687 1.367188-2.210937 1.496094-4.96875.339844-7.296875-1.804687-3.632812-2.722656-7.539062-2.722656-11.613281 0-14.414063 11.726562-26.140625 26.140625-26.140625s26.136719 11.726562 26.136719 26.140625c0 4.074219-.914063 7.980469-2.71875 11.613281-1.160156 2.328125-1.03125 5.085938.339844 7.296875 1.371093 2.210937 3.785156 3.554687 6.382812 3.554687h12.230469c4.148437 0 7.511719-3.359374 7.511719-7.507812 0-9.605469 7.8125-17.417969 17.414062-17.417969 9.546875 0 17.324219 7.722657 17.414062 17.25-.003906.105469-.007812.207031-.007812.289063-.03125 3.789062 2.765625 7.007812 6.519531 7.507812 5.527344.734375 9.691407 5.492188 9.691407 11.0625 0 6.167969-5.015626 11.183594-11.183594 11.183594h-69.433594c-4.148438 0-7.511719 3.363281-7.511719 7.511719 0 4.148437 3.363281 7.511719 7.511719 7.511719h69.433594c14.449218 0 26.207031-11.753907 26.207031-26.207032 0-10.949218-6.859375-20.558594-16.707031-24.402344-2.703125-15.171874-15.992188-26.726562-31.929688-26.726562-10.828125 0-20.433594 5.332031-26.332031 13.507812-2.003906-20.839843-19.613281-37.1875-40.96875-37.1875-22.699219 0-41.160156 18.464844-41.160156 41.160157 0 2.523437.222656 5.011719.667969 7.445312h-.636719c-14.449219 0-26.207031 11.753907-26.207031 26.203125 0 14.453125 11.757812 26.207032 26.207031 26.207032zm0 0"/><path d="m469.242188 420.667969c-2.578126-11.691407-13.023438-20.464844-25.480469-20.464844-7.171875 0-13.679688 2.910156-18.398438 7.613281-3.335937-14.457031-16.308593-25.261718-31.761719-25.261718-17.96875 0-32.589843 14.621093-32.589843 32.589843 0 1.25.070312 2.484375.207031 3.707031-11.019531.882813-19.714844 10.132813-19.714844 21.375 0 11.824219 9.621094 21.445313 21.445313 21.445313h97.535156c11.824219 0 21.445313-9.621094 21.445313-21.445313 0-8.59375-5.160157-16.175781-12.6875-19.558593zm-8.757813 25.980469h-97.535156c-3.542969 0-6.421875-2.882813-6.421875-6.421876 0-3.542968 2.878906-6.421874 6.421875-6.421874h8.1875c2.597656 0 5.015625-1.347657 6.382812-3.554688 1.371094-2.210938 1.5-4.972656.339844-7.300781-1.210937-2.441407-1.828125-5.066407-1.828125-7.804688 0-9.6875 7.882812-17.566406 17.570312-17.566406s17.570313 7.878906 17.570313 17.566406c0 2.738281-.617187 5.363281-1.828125 7.804688-1.160156 2.328125-1.03125 5.089843.339844 7.300781 1.371094 2.207031 3.785156 3.554688 6.382812 3.554688h9.117188c4.148437 0 7.511718-3.363282 7.511718-7.511719 0-6.101563 4.964844-11.066407 11.066407-11.066407 6.050781 0 10.984375 4.882813 11.066406 10.917969-.003906.101563-.007813.199219-.007813.285157 0 3.765624 2.789063 6.949218 6.519532 7.445312 3.171875.421875 5.566406 3.152344 5.566406 6.351562 0 3.539063-2.882812 6.421876-6.421875 6.421876zm0 0"/><path d="m127.738281 350.5625c-2.578125-11.691406-13.023437-20.460938-25.476562-20.460938-7.175781 0-13.683594 2.90625-18.402344 7.609376-3.335937-14.453126-16.308594-25.261719-31.761719-25.261719-17.96875 0-32.589844 14.625-32.589844 32.59375 0 1.246093.070313 2.484375.207032 3.703125-11.019532.886718-19.714844 10.136718-19.714844 21.375 0 11.828125 9.621094 21.445312 21.445312 21.445312h97.535157c11.824219 0 21.445312-9.617187 21.445312-21.445312 0-8.589844-5.160156-16.175782-12.6875-19.558594zm-8.757812 25.984375h-97.535157c-3.542968 0-6.421874-2.882813-6.421874-6.425781 0-3.539063 2.878906-6.421875 6.421874-6.421875h8.1875c2.597657 0 5.015626-1.34375 6.382813-3.554688 1.371094-2.210937 1.5-4.96875.339844-7.300781-1.210938-2.4375-1.828125-5.0625-1.828125-7.800781 0-9.6875 7.882812-17.570313 17.570312-17.570313s17.570313 7.882813 17.570313 17.570313c0 2.738281-.617188 5.363281-1.828125 7.800781-1.160156 2.332031-1.03125 5.089844.339844 7.300781 1.371093 2.210938 3.785156 3.554688 6.382812 3.554688h9.117188c4.148437 0 7.511718-3.359375 7.511718-7.511719 0-6.101562 4.964844-11.066406 11.066406-11.066406 6.054688 0 10.984376 4.886718 11.066407 10.917968-.003907.101563-.007813.203126-.007813.285157 0 3.765625 2.789063 6.949219 6.519532 7.449219 3.171874.417968 5.566406 3.148437 5.566406 6.347656 0 3.542968-2.878906 6.425781-6.421875 6.425781zm0 0"/></svg>