<svg id="Capa_1" enable-background="new 0 0 511.999 511.999" height="512" viewBox="0 0 511.999 511.999" width="512" xmlns="http://www.w3.org/2000/svg"><g><g><path d="m40.252 72.377c-3.703 1.874-7.267 3.764-10.648 5.67-2.037 1.148-3.118 3.697-3.118 6.283 0 32.828 14.814 224.478 57.229 297.248 25.251 43.323 108.458 89.465 148.46 101.202.995.292 2.031.292 3.026 0 5.397-1.584 11.587-3.799 18.309-6.544z" fill="#ffd064"/><path d="m437.773 78.047c-63.7-35.911-189.091-66.651-202.642-70.353-.953-.26-1.933-.26-2.886 0-12.831 3.506-125.936 31.256-191.993 64.683 3.639 85.747 19.785 240.024 55.41 301.145 22.677 38.906 95.167 81.802 157.849 102.715 26.287-10.734 60.8-29.646 88.681-51.271l94.269-274.835c3.072-31.356 4.43-55.86 4.43-65.801 0-2.586-1.081-5.134-3.118-6.283z" fill="#fff0af"/><path d="m383.665 381.578c29.572-50.735 45.726-159.253 52.799-231.447-1.356-.406-2.789-.632-4.273-.632h-75c-8.25 0-15 6.75-15 15v260.465c17.83-13.83 32.954-28.767 41.474-43.386z" fill="#ffd064"/><path d="m233.691 38.332-154.459 49.187c-8.712 3.644-16.103 7.014-22.368 10.092.403 8.576 1.13 19.436 2.191 31.888 0 0 6.817 67.184 13.109 105 0 0 31.035 93.774 47.471 121.973 17.951 30.799 114.052 95.27 114.052 95.27l.003-.002.003.002c39.51-13.933 106.102-54.471 124.052-85.27 16.436-28.199 28.813-79.937 37.471-131.973 6.292-37.816 13.109-105 13.109-105 1.061-12.452 1.788-23.311 2.191-31.888-28.813-14.159-81.449-34.479-176.825-59.279z" fill="#81a9c8"/><path d="m377.19 234.499 33.326-85h-53.326c-8.25 0-15 6.75-15 15v70z" fill="#4980ac"/><path d="m233.69 425.568c-38.641-18.189-87.14-50.505-102.055-76.097-14.642-25.121-26.065-68.922-34.505-114.973h-24.966c8.658 52.036 21.035 103.774 37.471 131.973 17.951 30.799 84.542 71.337 124.052 85.27z" fill="#4980ac"/><path d="m233.689 234.499-.001 191.068c.001 0 .001.001.002.001 26.635-11.41 78.662-37.212 108.501-60.17v-130.899z" fill="#bcd1e1"/><path d="m233.69 38.332c-74.64 19.408-123.102 36.072-154.458 49.187 1.952 33.369 7.781 91.782 17.898 146.98h136.559z" fill="#bcd1e1"/><g fill="#e9edf1"><path d="m452.19 504.499h-75c-8.25 0-15-6.75-15-15v-75c0-8.25 6.75-15 15-15h75c8.25 0 15 6.75 15 15v75c0 8.25-6.75 15-15 15z"/><path d="m452.19 369.499h-75c-8.25 0-15-6.75-15-15v-75c0-8.25 6.75-15 15-15h75c8.25 0 15 6.75 15 15v75c0 8.25-6.75 15-15 15z"/><path d="m452.19 234.499h-75c-8.25 0-15-6.75-15-15v-75c0-8.25 6.75-15 15-15h75c8.25 0 15 6.75 15 15v75c0 8.25-6.75 15-15 15z"/></g></g><g><path d="m452.19 511.999h-75c-12.406 0-22.5-10.094-22.5-22.5v-64.919c-11.96 9.955-24.647 18.744-35.698 25.772-27.767 17.66-59.826 33.214-81.676 39.624-2.371.697-4.881.697-7.254 0-21.848-6.41-53.907-21.964-81.674-39.624-24.117-15.34-56.039-39.067-71.152-64.998-43.076-73.903-58.25-265.528-58.25-301.024 0-5.494 2.657-10.405 6.935-12.816 39.123-22.056 105.876-45.438 198.404-69.493 2.753-.716 7.287-2.021 9.366-2.021s6.612 1.305 9.365 2.021c75.55 19.642 134.349 39.005 174.763 57.551 3.765 1.728 5.416 6.18 3.688 9.944s-6.18 5.414-9.944 3.688c-39.617-18.18-97.581-37.245-172.281-56.667-2.456-.638-4.345-1.13-5.591-1.464-1.248.335-3.137.826-5.592 1.464-112.675 29.295-167.706 52.894-194.107 67.648-.004.045-.006.094-.006.146 0 33.427 15.309 223.299 56.209 293.472 10.608 18.201 34.135 39.472 66.243 59.894 26.424 16.806 56.649 31.555 77.252 37.712 20.604-6.158 50.83-20.907 77.252-37.712 32.108-20.422 55.634-41.692 66.243-59.894.154-.266.309-.533.463-.803h-.458c-5.315 0-10.206-1.853-14.061-4.946-20.819 33.019-88.355 73.14-126.881 86.741-.596.217-1.228.359-1.883.419-.002 0-.006.001-.012.001-.229.021-.456.027-.69.029-.005 0-.009 0-.014 0-.946-.005-1.851-.184-2.683-.508-29.435-10.427-76.986-36.542-107.405-64.554-3.048-2.807-3.243-7.551-.438-10.598 2.808-3.049 7.551-3.243 10.598-.438 24.886 22.916 64.112 45.826 92.464 57.655l.002-198.803h-145.177c8.476 48.465 20.146 95.032 35.104 120.696 2.086 3.578.876 8.17-2.703 10.256-3.578 2.086-8.17.877-10.256-2.703-37.018-63.511-51.84-230.927-53.783-272.284-.14-2.983 1.504-5.766 4.185-7.083 38.571-18.954 98.485-39.062 178.085-59.765.594-.168 1.218-.265 1.862-.281h.017.001c.111-.002.226-.002.337 0h.016c.646.016 1.272.113 1.868.282 79.599 20.703 139.511 40.81 178.082 59.764 2.681 1.317 4.324 4.101 4.185 7.084-.33 7.002-.857 15.195-1.546 24.035h14.944c1.453-18.85 1.987-31.672 1.987-37.669 0-.075-.005-.145-.012-.204-3.058-2.204-4.034-6.402-2.14-9.763 2.034-3.607 6.605-4.884 10.217-2.85 4.277 2.411 6.935 7.322 6.935 12.816 0 6.157-.526 19.05-1.952 37.773 3.547.596 6.248 3.68 6.248 7.396 0 4.143-3.357 7.5-7.5 7.5h-68c-4.136 0-7.5 3.364-7.5 7.5v75c0 4.136 3.364 7.5 7.5 7.5h75c4.136 0 7.5-3.364 7.5-7.5v-53.571l-37.165 37.166c-2.931 2.929-7.679 2.927-10.607 0l-25.031-25.031c-2.929-2.93-2.929-7.678 0-10.607 2.929-2.927 7.677-2.929 10.607 0l19.728 19.729 62.987-62.988c2.93-2.928 7.678-2.928 10.607 0 2.929 2.93 2.929 7.678 0 10.607l-16.126 16.125v68.571c0 12.406-10.094 22.5-22.5 22.5h-20.188c-.851 5.085-1.725 10.096-2.617 15h15.805c4.143 0 7.5 3.357 7.5 7.5s-3.357 7.5-7.5 7.5h-68c-4.136 0-7.5 3.364-7.5 7.5 0 0 .039 75.878.113 76.301.027.123.053.247.075.372.762 3.333 3.751 5.827 7.312 5.827h75c4.136 0 7.5-3.364 7.5-7.5v-53.571l-37.165 37.166c-2.931 2.928-7.679 2.928-10.607 0l-25.031-25.031c-2.929-2.93-2.929-7.678 0-10.607 2.929-2.928 7.677-2.929 10.607 0l19.728 19.729 62.987-62.988c2.93-2.928 7.678-2.928 10.607 0 2.929 2.93 2.929 7.678 0 10.607l-16.126 16.125v68.571c0 12.406-10.094 22.5-22.5 22.5h-57.532c-1.484 2.954-2.996 5.752-4.514 8.355-1.301 2.232-2.728 4.449-4.261 6.645h59.307c4.143 0 7.5 3.357 7.5 7.5s-3.357 7.5-7.5 7.5h-68c-4.136 0-7.5 3.364-7.5 7.5v75c0 4.136 3.364 7.5 7.5 7.5h75c4.136 0 7.5-3.364 7.5-7.5v-53.571l-37.165 37.166c-2.931 2.929-7.679 2.927-10.607 0l-25.031-25.031c-2.929-2.93-2.929-7.678 0-10.607 2.929-2.928 7.677-2.929 10.607 0l19.728 19.729 62.987-62.988c2.93-2.928 7.678-2.928 10.607 0 2.929 2.93 2.929 7.678 0 10.607l-16.126 16.125v68.571c-.001 12.404-10.094 22.498-22.501 22.498zm-211.002-270-.002 198.833c40.715-16.82 95.226-52.652 110.08-78.138 1.165-2 2.334-4.174 3.488-6.484-.043-.564-.064-1.136-.064-1.711v-75c0-12.406 10.094-22.5 22.5-22.5h6.401c.932-4.881 1.848-9.893 2.74-15zm157.67 15h15.277c.904-4.895 1.792-9.905 2.656-15h-15.235c-.878 5.097-1.78 10.107-2.698 15zm-157.67-30h114.787c-.832-2.347-1.285-4.872-1.285-7.5v-75c0-12.406 10.094-22.5 22.5-22.5h24.227c.562-7.107 1.019-13.801 1.353-19.794-26.253-12.395-74.771-31.164-161.579-54.151zm-162.694 0h147.694l.002-178.945c-86.807 22.987-135.328 41.758-161.581 54.152 1.635 29.665 6.235 77.194 13.885 124.793zm355.592-142.423c.003.001.005.003.007.004-.002-.001-.004-.003-.007-.004z"/></g></g></svg>