<svg id="Capa_1" enable-background="new 0 0 493.497 493.497" height="512" viewBox="0 0 493.497 493.497" width="512" xmlns="http://www.w3.org/2000/svg"><g><circle cx="204.515" cy="229.038" fill="#fdb441" r="204.515"/><circle cx="204.515" cy="229.039" fill="#fedf30" r="164.515"/><path d="m102.873 229.038c0-80.106 57.283-146.841 133.103-161.513-10.177-1.969-20.708-3.001-31.461-3.001-90.859 0-164.515 73.655-164.515 164.514s73.656 164.515 164.515 164.515c10.752 0 21.26-1.043 31.437-3.013-75.821-14.673-133.079-81.395-133.079-161.502z" fill="#fed402"/><g><g id="XMLID_269_"><g><path d="m379.608 238.141c62.913 0 113.915 51.695 113.89 115.463-.025 63.904-51.921 115.369-114.979 115.369h-148.346c-43.524 0-79.453-35.42-79.598-79.527-.146-44.203 35.166-80.08 78.744-80.08 11.913 0 23.211 2.683 33.333 7.484 4.07 1.93 8.866-.019 10.461-4.276 16.31-43.513 57.834-74.433 106.495-74.433z" fill="#f9f3f1"/></g></g></g><path d="m186.474 414.017c-.146-44.203 35.166-80.08 78.744-80.08 11.913 0 23.211 2.683 33.333 7.484 4.07 1.93 8.866-.019 10.461-4.276 16.31-43.514 57.834-74.434 106.495-74.434 15.82 0 30.885 3.271 44.577 9.179-20.606-20.853-49.055-33.749-80.476-33.749-48.661 0-90.185 30.92-106.495 74.434-1.596 4.257-6.392 6.206-10.461 4.276-10.122-4.801-21.42-7.484-33.333-7.484-43.578 0-78.89 35.876-78.744 80.08.116 35.219 23.048 64.897 54.443 75.429-11.499-13.761-18.48-31.47-18.544-50.859z" fill="#f3eae6"/></g></svg>